# xmcd
#
# Track frame offsets:
#	150
#	15712
#	34367
#	48415
#
# Disc length: 1108 seconds
#
# Revision: 1
# Processed by: cddbd v1.5.2PL0 Copyright (c) Steve Scherf et al.
# Submitted via: audiograbber 1.83.01
#
DISCID=2d045204
DTITLE=Dante Thomas feat. Pras - Maxi
DYEAR=2001
DGENRE=R&B
TTITLE0=Miss California ( Radio No Rap Version) 
TTITLE1=Miss California ( Radio With Rap Version ) 
TTITLE2=Miss California ( Bastone and Bernstein Radio Version )
TTITLE3=Miss California ( Bastone and Bernstein Club Version )
EXTD=
EXTT0=
EXTT1=
EXTT2=
EXTT3=
PLAYORDER=
